<?xml version="1.0" encoding="utf-8"?>
<!-- Generator: Adobe Illustrator 25.0.0, SVG Export Plug-In . SVG Version: 6.00 Build 0)  -->
<svg version="1.1" id="Layer_1" xmlns="http://www.w3.org/2000/svg" xmlns:xlink="http://www.w3.org/1999/xlink" x="0px" y="0px"
	 viewBox="0 0 749.852 650.194" style="enable-background:new 0 0 749.852 650.194;" xml:space="preserve">
<style type="text/css">
	.st0{display:none;}
	.st1{display:inline;fill:#565656;}
	.st2{display:inline;fill:#207EA9;}
	.st3{fill:#BABABA;stroke:#BABABA;stroke-width:11;stroke-miterlimit:10;}
	.st4{fill:#207EA9;}
	.st5{fill:#7F7F7F;}
</style>
<g id="Layer_1_1_">
	<g class="st0">
		<path class="st1" d="M479.757,455.248l-177.5-0.5c-4.2,0.5-4.6-3.9-4.1-6c16.3-78.3,59.2-268.3,64.1-285c5.7,0,181.3,0,181.3,0
			l-12.7,47.4c0,0-96.4-0.2-121.4,1.9c-6.2,0.5-13-0.9-16.5,19.2l-35.1,165.1c-0.7,3.6,2.6,7.9,7.3,7.7l124.1,0.3"/>
	</g>
	<g class="st0">
		<path class="st2" d="M564.257,74.748l-12.1,49.7h-304.7l-8.5,38.8l80.3,1.9l-60.5,286.3c-1.5,3.8-4,4.3-7.5,4.3h-40.7l51.3-242
			l-76.1-0.2c-4,0-5.4-1.9-4.4-6.2l29.9-132.6L564.257,74.748L564.257,74.748z"/>
	</g>
	<g>
		<g>
			<path class="st3" d="M343.207,190.965c0-71.728,56.834-122.384,121.73-122.384c59.786,0,101.085,45.474,111.031,78.057
				l-51.888-0.167c-15.373-16.676-33.627-28.184-58.125-29.068c-29.328-1.058-69.919,26.739-69.919,73.563
				c0,46.523,33.709,74.384,69.803,72.963c29.431-1.159,48.293-13.17,59.126-33.817l51.689-0.084
				c-20.482,62.415-76.585,83.128-113.158,83.128C401.532,313.154,343.207,262.616,343.207,190.965z"/>
		</g>
		<path class="st4" d="M326.414,196.284c-0.281-37.027,12.301-75.568,40.682-101.443V20.024h-78.431l0.081,72.676l-72.752-0.053
			l-0.036,60.99h71.883l0.011,59.92c0.169,21.309-0.842,39.552,6.32,54.691c15.781,33.752,44.129,49.777,107.778,49.715l24.25,0.062
			l-8-1.088c-21.292-3.781-50.662-24.124-65.361-45.281C336.26,250.77,327.84,229.859,326.414,196.284z"/>
	</g>
	<path class="st5" d="M131.189,595.432c1.724-0.328,4.187-0.575,7.472-0.575c3.531,0,6.158,0.739,7.882,2.135
		c1.56,1.314,2.627,3.366,2.627,5.912s-0.821,4.598-2.299,6.076c-1.971,1.971-5.009,2.874-8.457,2.874c-0.903,0-1.724,0-2.381-0.164
		v10.017h-4.844L131.189,595.432L131.189,595.432z M136.033,607.83c0.575,0.164,1.396,0.164,2.381,0.164
		c3.613,0,5.83-1.806,5.83-4.926c0-2.956-2.053-4.516-5.419-4.516c-1.314,0-2.299,0.082-2.792,0.246L136.033,607.83L136.033,607.83z
		 M180.864,608.076c0,8.95-5.419,14.04-12.809,14.04c-7.472,0-12.234-5.747-12.234-13.548c0-8.211,5.173-13.958,12.644-13.958
		C176.266,594.611,180.864,600.523,180.864,608.076z M160.994,608.487c0,5.419,2.71,9.689,7.39,9.689s7.39-4.352,7.39-9.935
		c0-5.008-2.463-9.771-7.39-9.771C163.539,598.552,160.994,602.986,160.994,608.487z M193.18,621.706l-6.486-26.603h5.173
		l2.545,12.07c0.657,3.202,1.314,6.651,1.724,9.278h0.082c0.411-2.792,1.15-5.994,1.971-9.36l2.874-12.07h5.091l2.627,12.234
		c0.657,3.202,1.232,6.158,1.642,9.032h0.082c0.493-2.956,1.067-5.994,1.806-9.196l2.792-12.07h4.926l-7.225,26.685h-5.255
		l-2.792-12.562c-0.657-3.038-1.149-5.583-1.478-8.457h-0.082c-0.493,2.874-0.985,5.419-1.806,8.457l-3.12,12.562H193.18z
		 M242.116,609.883h-10.017v7.8h11.249v4.023h-16.093v-26.603h15.518v4.023h-10.674v6.897h10.017V609.883L242.116,609.883z
		 M251.476,595.432c1.806-0.328,4.516-0.575,7.39-0.575c3.859,0,6.404,0.657,8.211,2.135c1.478,1.232,2.299,3.12,2.299,5.337
		c0,3.448-2.299,5.747-4.844,6.651v0.082c1.888,0.739,3.038,2.545,3.695,5.173c0.821,3.284,1.56,6.404,2.135,7.39h-5.009
		c-0.411-0.821-1.067-2.956-1.806-6.322c-0.739-3.448-2.053-4.598-4.762-4.68h-2.463v11.085h-4.844v-26.276H251.476z
		 M256.32,607.173h2.874c3.284,0,5.337-1.724,5.337-4.352c0-2.956-2.053-4.27-5.255-4.27c-1.56,0-2.545,0.082-3.038,0.246v8.375
		h0.082V607.173z M292.858,609.883h-10.017v7.8h11.249v4.023h-16.093v-26.603h15.518v4.023h-10.674v6.897h10.017V609.883
		L292.858,609.883z M302.218,595.432c2.135-0.328,4.844-0.575,7.718-0.575c5.009,0,8.457,1.067,10.838,3.12
		c2.545,2.135,4.187,5.255,4.187,9.771c0,4.762-1.642,8.293-4.187,10.592c-2.627,2.381-6.897,3.613-12.07,3.613
		c-2.874,0-5.009-0.164-6.569-0.328L302.218,595.432L302.218,595.432z M307.144,618.011c0.657,0.082,1.724,0.082,2.71,0.082
		c6.322,0,10.099-3.448,10.099-10.181c0-5.912-3.366-9.278-9.442-9.278c-1.56,0-2.627,0.082-3.284,0.246L307.144,618.011
		L307.144,618.011z M344.324,595.432c1.56-0.328,4.352-0.575,7.061-0.575c3.613,0,5.83,0.411,7.636,1.724
		c1.642,0.985,2.792,2.709,2.792,5.008c0,2.463-1.56,4.68-4.434,5.747v0.082c2.792,0.739,5.337,2.956,5.337,6.569
		c0,2.381-1.067,4.27-2.545,5.501c-1.888,1.642-5.009,2.463-9.853,2.463c-2.71,0-4.762-0.164-5.994-0.328V595.432L344.324,595.432z
		 M349.169,605.942h2.463c3.366,0,5.255-1.56,5.255-3.859c0-2.463-1.888-3.613-5.009-3.613c-1.396,0-2.217,0.082-2.792,0.164v7.308
		H349.169z M349.169,618.176c0.657,0.082,1.478,0.082,2.545,0.082c3.12,0,5.912-1.15,5.912-4.434c0-3.12-2.71-4.352-6.076-4.352
		h-2.381V618.176L349.169,618.176z M376.1,621.706v-11.084l-8.457-15.518h5.501l3.202,6.815c0.903,1.971,1.56,3.449,2.299,5.337
		h0.082c0.657-1.724,1.396-3.366,2.299-5.337l3.202-6.815h5.501l-8.785,15.354v11.249H376.1V621.706z M113.759,609.554
		c0-4.105-3.284-6.733-6.651-6.733c-3.695,0-6.733,2.956-6.733,6.651c0,4.023,3.284,6.815,6.651,6.733
		C110.228,616.287,113.759,613.742,113.759,609.554z M658.375,609.554c0-4.105-3.284-6.733-6.651-6.733
		c-3.695,0-6.733,2.956-6.733,6.651c0,4.023,3.284,6.815,6.651,6.733C654.845,616.287,658.293,613.742,658.375,609.554z
		 M416.577,592.694h3.799v19.523c0,7.774-3.799,10.071-8.834,10.071c-1.413,0-3.092-0.265-3.975-0.707l0.53-3.092
		c0.795,0.265,1.943,0.53,3.18,0.53c3.357,0,5.389-1.502,5.389-7.244v-19.081L416.577,592.694L416.577,592.694z M445.375,611.245
		c0,7.774-5.389,11.131-10.424,11.131c-5.654,0-9.982-4.152-9.982-10.777c0-6.979,4.594-11.131,10.336-11.131
		C441.312,600.468,445.375,604.796,445.375,611.245z M428.767,611.422c0,4.594,2.65,8.039,6.36,8.039c3.622,0,6.36-3.445,6.36-8.127
		c0-3.534-1.767-8.039-6.272-8.039S428.767,607.447,428.767,611.422z M454.386,595.079c0,1.325-0.883,2.297-2.385,2.297
		c-1.325,0-2.297-1.06-2.297-2.297c0-1.325,0.972-2.385,2.385-2.385S454.386,593.754,454.386,595.079z M450.145,621.846V600.91
		h3.799v20.936H450.145z M460.305,606.563c0-2.12,0-3.975-0.177-5.654h3.357l0.177,3.445h0.088c1.06-1.943,3.445-3.975,6.89-3.975
		c2.915,0,7.421,1.767,7.421,8.922v12.456h-3.799v-12.014c0-3.357-1.237-6.184-4.859-6.184c-2.473,0-4.417,1.767-5.124,3.887
		c-0.177,0.442-0.265,1.148-0.265,1.767v12.544h-3.799L460.305,606.563L460.305,606.563z M488.661,594.902v6.007h5.477v2.915h-5.477
		v11.307c0,2.562,0.707,4.064,2.827,4.064c0.972,0,1.767-0.088,2.208-0.265l0.177,2.827c-0.707,0.265-1.943,0.53-3.357,0.53
		c-1.767,0-3.18-0.53-4.064-1.59c-1.06-1.148-1.502-3.004-1.502-5.477v-11.396h-3.269v-2.915h3.269v-5.035L488.661,594.902z
		 M498.025,617.252c1.678,1.06,4.152,1.943,6.714,1.943c3.887,0,6.095-2.032,6.095-4.947c0-2.738-1.59-4.24-5.477-5.83
		c-4.77-1.678-7.686-4.152-7.686-8.216c0-4.505,3.799-7.951,9.452-7.951c3.004,0,5.124,0.707,6.449,1.413l-1.06,3.092
		c-0.972-0.53-2.915-1.413-5.565-1.413c-3.975,0-5.477,2.385-5.477,4.329c0,2.738,1.767,4.064,5.83,5.654
		c4.947,1.943,7.421,4.24,7.421,8.569c0,4.505-3.357,8.392-10.159,8.392c-2.827,0-5.919-0.795-7.421-1.855L498.025,617.252z
		 M524.174,594.902v6.007h5.477v2.915h-5.477v11.307c0,2.562,0.707,4.064,2.827,4.064c0.972,0,1.767-0.088,2.208-0.265l0.177,2.827
		c-0.707,0.265-1.943,0.53-3.357,0.53c-1.767,0-3.18-0.53-4.064-1.59c-1.06-1.148-1.502-3.004-1.502-5.477v-11.396h-3.269v-2.915
		h3.269v-5.035L524.174,594.902z M533.891,607.447c0-2.473,0-4.594-0.177-6.537h3.357l0.088,4.064h0.177
		c0.972-2.827,3.269-4.594,5.83-4.594c0.442,0,0.707,0,1.06,0.088v3.622c-0.353-0.088-0.795-0.088-1.325-0.088
		c-2.65,0-4.594,2.032-5.124,4.859c-0.088,0.53-0.177,1.148-0.177,1.767v11.131h-3.71v-14.312H533.891z M566.488,611.245
		c0,7.774-5.389,11.131-10.424,11.131c-5.654,0-9.982-4.152-9.982-10.777c0-6.979,4.594-11.131,10.336-11.131
		C562.425,600.468,566.488,604.796,566.488,611.245z M549.88,611.422c0,4.594,2.65,8.039,6.36,8.039c3.622,0,6.36-3.445,6.36-8.127
		c0-3.534-1.767-8.039-6.272-8.039S549.88,607.447,549.88,611.422z M571.259,606.563c0-2.12,0-3.975-0.177-5.654h3.357l0.177,3.445
		h0.088c1.06-1.943,3.445-3.975,6.89-3.975c2.915,0,7.421,1.767,7.421,8.922v12.456h-3.799v-12.014c0-3.357-1.237-6.184-4.859-6.184
		c-2.474,0-4.417,1.767-5.124,3.887c-0.177,0.442-0.265,1.148-0.265,1.767v12.544h-3.799L571.259,606.563L571.259,606.563z
		 M613.308,600.909c-0.088,1.502-0.177,3.18-0.177,5.742v12.102c0,4.77-0.972,7.774-3.004,9.541
		c-2.032,1.943-4.947,2.474-7.597,2.474c-2.474,0-5.3-0.618-6.979-1.767l0.972-2.915c1.413,0.883,3.534,1.678,6.095,1.678
		c3.887,0,6.714-2.032,6.714-7.332v-2.297h-0.088c-1.148,1.943-3.445,3.534-6.625,3.534c-5.212,0-8.922-4.417-8.922-10.159
		c0-7.067,4.594-11.131,9.452-11.131c3.622,0,5.654,1.943,6.537,3.622h0.088l0.177-3.18L613.308,600.909L613.308,600.909z
		 M609.333,609.213c0-0.618,0-1.237-0.177-1.767c-0.707-2.208-2.562-3.975-5.3-3.975c-3.622,0-6.184,3.092-6.184,7.951
		c0,4.064,2.032,7.509,6.184,7.509c2.297,0,4.417-1.502,5.3-3.887c0.177-0.618,0.265-1.413,0.265-2.032L609.333,609.213
		L609.333,609.213z M632.566,599.319c0,3.975-3.18,7.155-7.244,7.155s-7.332-3.18-7.332-7.155s3.269-7.067,7.332-7.067
		C629.474,592.252,632.566,595.432,632.566,599.319z M619.845,599.319c0,3.18,2.297,5.654,5.565,5.654
		c3.092,0,5.389-2.474,5.389-5.654s-2.297-5.742-5.477-5.742C622.142,593.666,619.845,596.228,619.845,599.319z M624.174,603.03
		h-1.678v-7.067c0.618-0.088,1.59-0.177,2.738-0.177c1.325,0,1.943,0.177,2.474,0.53c0.353,0.265,0.707,0.883,0.707,1.59
		c0,0.795-0.618,1.413-1.502,1.678v0.088c0.707,0.265,1.06,0.795,1.325,1.767c0.177,1.06,0.353,1.502,0.53,1.767H627
		c-0.177-0.265-0.353-0.883-0.53-1.767c-0.088-0.795-0.53-1.148-1.502-1.148h-0.795L624.174,603.03L624.174,603.03z
		 M624.262,599.054h0.795c0.883,0,1.678-0.265,1.678-1.06c0-0.618-0.442-1.06-1.502-1.06c-0.442,0-0.707,0-0.883,0.088v2.032
		H624.262z"/>
	<g>
		<path class="st5" d="M78.477,371.986H54.846v-5.95h54.064v5.95H85.363v54.574h-6.886V371.986z"/>
		<path class="st5" d="M159.485,405.138c0,11.562-7.311,22.612-22.441,22.612c-14.026,0-22.102-10.711-22.102-22.527
			c0-12.41,8.586-22.611,22.442-22.611C151.664,382.612,159.485,393.663,159.485,405.138z M121.487,405.223
			c0,8.586,5.696,17.002,15.727,17.002c10.541,0,15.641-7.82,15.641-16.916c0-9.267-5.78-17.172-15.811-17.172
			C126.587,388.137,121.487,396.043,121.487,405.223z"/>
		<path class="st5" d="M184.386,383.802c8.501,26.097,10.371,31.962,11.476,36.553h0.085c1.105-4.165,3.061-9.691,12.751-36.553
			h6.206c9.351,26.182,11.646,32.728,12.411,36.043h0.085c1.02-4.081,4.08-13.687,11.816-36.043h6.46L230.46,426.56h-6.545
			c-5.271-15.046-10.966-30.603-12.411-35.362h-0.085c-1.105,3.91-5.865,17.596-12.411,35.362h-6.886l-14.451-42.758H184.386z"/>
		<path class="st5" d="M266.41,394.598c0-3.655,0-7.566-0.085-10.796h6.291c0.17,1.53,0.255,5.355,0.255,8.585
			c1.785-4.42,6.46-9.775,15.896-9.775c9.86,0,16.491,6.12,16.491,18.021v25.927h-6.46v-24.651c0-7.736-2.976-13.687-11.476-13.687
			c-9.606,0-14.451,7.565-14.451,18.106v20.231h-6.46v-31.961H266.41z"/>
		<path class="st5" d="M425.024,409.304c-3.655,10.285-10.966,18.531-27.798,18.531c-19.636,0-30.688-13.856-30.688-31.367
			c0-17.597,12.326-31.708,31.113-31.708c17.171,0,25.076,9.096,27.627,19.042h-7.056c-3.061-7.141-8.331-13.092-20.741-13.092
			c-14.622,0-23.718,10.711-23.718,25.503c0,14.45,9.182,25.672,23.803,25.672c12.24,0,17.001-5.271,20.571-12.581L425.024,409.304
			L425.024,409.304z"/>
		<path class="st5" d="M452.389,406.669c0.51,9.096,6.546,15.642,15.896,15.642c7.141,0,11.221-3.061,13.686-7.65h6.461
			c-2.21,6.035-8.161,13.091-20.657,13.091c-14.706,0-21.847-11.051-21.847-22.441c0-13.177,8.756-22.697,21.592-22.697
			c16.066,0,21.507,11.986,21.507,22.271v1.785h-36.638V406.669z M482.225,401.654c-0.34-5.611-3.314-13.771-14.791-13.771
			c-9.266,0-14.026,5.95-14.876,13.771H482.225z"/>
		<path class="st5" d="M511.888,394.598c0-3.655,0-7.566-0.085-10.796h6.291c0.17,1.53,0.255,5.355,0.255,8.585
			c1.785-4.42,6.46-9.775,15.896-9.775c9.86,0,16.491,6.12,16.491,18.021v25.927h-6.461v-24.651c0-7.736-2.976-13.687-11.476-13.687
			c-9.606,0-14.451,7.565-14.451,18.106v20.231h-6.461L511.888,394.598L511.888,394.598z"/>
		<path class="st5" d="M570.113,383.802h8.756v-14.111h6.375v14.111h11.562v5.271h-11.562v24.991c0,5.271,1.445,7.651,6.206,7.651
			c1.274,0,3.145-0.085,4.42-0.426v4.931c-1.87,0.68-3.825,0.765-6.035,0.765c-8.416,0-10.966-3.825-10.966-12.24v-25.672h-8.756
			V383.802z"/>
		<path class="st5" d="M620.349,406.669c0.511,9.096,6.546,15.642,15.896,15.642c7.141,0,11.221-3.061,13.687-7.65h6.46
			c-2.21,6.035-8.16,13.091-20.656,13.091c-14.706,0-21.847-11.051-21.847-22.441c0-13.177,8.756-22.697,21.592-22.697
			c16.066,0,21.507,11.986,21.507,22.271v1.785h-36.639V406.669z M650.186,401.654c-0.34-5.611-3.315-13.771-14.791-13.771
			c-9.266,0-14.026,5.95-14.876,13.771H650.186z"/>
		<path class="st5" d="M679.934,395.448c0-3.91,0-7.82-0.085-11.646h6.205c0.085,1.189,0.255,5.61,0.255,9.945
			c2.891-6.801,9.351-11.136,17.597-11.136v6.376c-9.946-0.171-17.597,6.375-17.597,19.041v18.531h-6.375V395.448z"/>
	</g>
	<g>
		<path class="st4" d="M22.72,445.992h86.52v25.199H55.984v22.513h49.896v25.199H55.984v42.84H22.72V445.992z"/>
		<path class="st4" d="M160.309,445.992v115.751h-34.104V445.992H160.309z"/>
		<path class="st4" d="M208.521,471.191h-33.096v-25.199h99.792v25.199h-32.76v90.552h-33.936L208.521,471.191L208.521,471.191z"/>
		<path class="st4" d="M288.991,561.743V445.992h40.656c12.096,26.04,29.736,61.319,34.607,75.6h0.672
			c-1.344-12.096-1.68-32.424-1.68-50.904v-24.695h30.912v115.751h-38.64c-9.744-21-30.744-64.344-36.288-79.632h-0.336
			c1.008,10.92,1.176,33.265,1.176,53.592v26.04L288.991,561.743L288.991,561.743z"/>
		<path class="st4" d="M503.357,514.872h-52.751v21.672h58.967l-3.863,25.199h-87.696V445.992h87.528v25.199h-54.936v18.648h52.751
			V514.872z"/>
		<path class="st4" d="M552.745,526.631c2.016,10.08,9.071,14.447,19.991,14.447c10.248,0,14.952-3.695,14.952-10.416
			c0-7.56-5.04-10.415-23.352-14.783c-34.104-8.232-40.992-20.664-40.992-36.288c0-19.488,14.28-35.784,46.536-35.784
			c33.432,0,47.208,17.136,48.72,35.28h-32.76c-0.84-6.216-4.032-12.432-16.128-12.432c-7.729,0-12.432,2.855-12.432,9.071
			c0,6.384,4.199,8.736,22.008,13.104c35.615,8.903,42.84,21.84,42.84,38.304c0,21.672-16.801,36.792-50.736,36.792
			c-32.088,0-49.056-14.952-51.575-37.296h32.928V526.631z"/>
		<path class="st4" d="M666.647,526.631c2.017,10.08,9.072,14.447,19.992,14.447c10.248,0,14.952-3.695,14.952-10.416
			c0-7.56-5.04-10.415-23.353-14.783c-34.104-8.232-40.991-20.664-40.991-36.288c0-19.488,14.279-35.784,46.535-35.784
			c33.433,0,47.208,17.136,48.72,35.28h-32.76c-0.84-6.216-4.031-12.432-16.128-12.432c-7.728,0-12.432,2.855-12.432,9.071
			c0,6.384,4.2,8.736,22.008,13.104c35.616,8.903,42.84,21.84,42.84,38.304c0,21.672-16.8,36.792-50.735,36.792
			c-32.088,0-49.056-14.952-51.576-37.296h32.928V526.631z"/>
	</g>
</g>
<g id="Layer_2_1_">
</g>
</svg>
