<?xml version="1.0" encoding="utf-8"?>
<!-- Generator: Adobe Illustrator 25.0.0, SVG Export Plug-In . SVG Version: 6.00 Build 0)  -->
<svg version="1.1" id="Layer_1" xmlns="http://www.w3.org/2000/svg" xmlns:xlink="http://www.w3.org/1999/xlink" x="0px" y="0px"
	 viewBox="0 0 382 310.097" style="enable-background:new 0 0 382 310.097;" xml:space="preserve">
<style type="text/css">
	.st0{display:none;}
	.st1{display:inline;fill:#565656;}
	.st2{display:inline;fill:#207EA9;}
	.st3{fill:#BABABA;}
	.st4{fill:#207EA9;}
</style>
<g id="Layer_1_1_">
	<g class="st0">
		<path class="st1" d="M271.757,440.248l-177.5-0.5c-4.2,0.5-4.6-3.9-4.1-6c16.3-78.3,59.2-268.3,64.1-285c5.7,0,181.3,0,181.3,0
			l-12.7,47.4c0,0-96.4-0.2-121.4,1.9c-6.2,0.5-13-0.9-16.5,19.2l-35.1,165.1c-0.7,3.6,2.6,7.9,7.3,7.7l124.1,0.3"/>
	</g>
	<g class="st0">
		<path class="st2" d="M356.257,59.748l-12.1,49.7h-304.7l-8.5,38.8l80.3,1.9l-60.5,286.3c-1.5,3.8-4,4.3-7.5,4.3h-40.7l51.3-242
			l-76.1-0.2c-4,0-5.4-1.9-4.4-6.2l29.9-132.6L356.257,59.748L356.257,59.748z"/>
	</g>
	<g>
		<g>
			<path class="st3" d="M133.124,175.969c0-74.663,59.16-127.392,126.711-127.392c62.233,0,105.222,47.335,115.575,81.251
				l-54.011-0.174c-16.002-17.358-35.003-29.337-60.504-30.257c-30.528-1.101-72.78,27.833-72.78,76.573
				c0,48.427,35.088,77.428,72.659,75.949c30.635-1.206,50.269-13.709,61.546-35.201l53.804-0.087
				c-21.32,64.969-79.719,86.53-117.789,86.53C193.836,303.158,133.124,250.552,133.124,175.969z"/>
		</g>
		<path class="st4" d="M121.108,181.284c-0.281-37.027,12.301-75.568,40.682-101.443V5.024H83.359L83.44,77.7l-72.752-0.053
			l-0.036,60.99h71.883l0.011,59.92c0.169,21.309-0.842,39.552,6.32,54.691c15.781,33.752,44.129,49.777,107.778,49.715l24.25,0.062
			l-8-1.088c-21.292-3.781-50.662-24.124-65.361-45.281C130.954,235.77,122.534,214.859,121.108,181.284z"/>
	</g>
</g>
<g id="Layer_2_1_">
</g>
</svg>
