<?xml version="1.0" encoding="utf-8"?>
<!-- Generator: Adobe Illustrator 25.0.0, SVG Export Plug-In . SVG Version: 6.00 Build 0)  -->
<svg version="1.1" id="Layer_1" xmlns="http://www.w3.org/2000/svg" xmlns:xlink="http://www.w3.org/1999/xlink" x="0px" y="0px"
	 viewBox="0 0 859.2 582.7" style="enable-background:new 0 0 859.2 582.7;" xml:space="preserve">
<style type="text/css">
	.st0{fill:#999999;}
	.st1{fill:#217EA9;}
	.st2{fill:#207EA9;}
</style>
<g id="Layer_1_1_">
	<path class="st0" d="M133.6,539c2.1-0.4,5.1-0.7,9.1-0.7c4.3,0,7.5,0.9,9.6,2.6c1.9,1.6,3.2,4.1,3.2,7.2c0,3.1-1,5.6-2.8,7.4
		c-2.4,2.4-6.1,3.5-10.3,3.5c-1.1,0-2.1,0-2.9-0.2V571h-5.9L133.6,539L133.6,539z M139.5,554.1c0.7,0.2,1.7,0.2,2.9,0.2
		c4.4,0,7.1-2.2,7.1-6c0-3.6-2.5-5.5-6.6-5.5c-1.6,0-2.8,0.1-3.4,0.3V554.1z M194.1,554.4c0,10.9-6.6,17.1-15.6,17.1
		c-9.1,0-14.9-7-14.9-16.5c0-10,6.3-17,15.4-17C188.5,538,194.1,545.2,194.1,554.4z M169.9,554.9c0,6.6,3.3,11.8,9,11.8
		c5.7,0,9-5.3,9-12.1c0-6.1-3-11.9-9-11.9C173,542.8,169.9,548.2,169.9,554.9z M209.1,571l-7.9-32.4h6.3l3.1,14.7
		c0.8,3.9,1.6,8.1,2.1,11.3h0.1c0.5-3.4,1.4-7.3,2.4-11.4l3.5-14.7h6.2l3.2,14.9c0.8,3.9,1.5,7.5,2,11h0.1c0.6-3.6,1.3-7.3,2.2-11.2
		l3.4-14.7h6L233,571h-6.4l-3.4-15.3c-0.8-3.7-1.4-6.8-1.8-10.3h-0.1c-0.6,3.5-1.2,6.6-2.2,10.3l-3.8,15.3H209.1z M268.7,556.6
		h-12.2v9.5h13.7v4.9h-19.6v-32.4h18.9v4.9h-13v8.4h12.2L268.7,556.6L268.7,556.6z M280.1,539c2.2-0.4,5.5-0.7,9-0.7
		c4.7,0,7.8,0.8,10,2.6c1.8,1.5,2.8,3.8,2.8,6.5c0,4.2-2.8,7-5.9,8.1v0.1c2.3,0.9,3.7,3.1,4.5,6.3c1,4,1.9,7.8,2.6,9H297
		c-0.5-1-1.3-3.6-2.2-7.7c-0.9-4.2-2.5-5.6-5.8-5.7h-3V571h-5.9L280.1,539L280.1,539z M286,553.3h3.5c4,0,6.5-2.1,6.5-5.3
		c0-3.6-2.5-5.2-6.4-5.2c-1.9,0-3.1,0.1-3.7,0.3V553.3z M330.5,556.6h-12.2v9.5h13.7v4.9h-19.6v-32.4h18.9v4.9h-13v8.4h12.2
		L330.5,556.6L330.5,556.6z M341.9,539c2.6-0.4,5.9-0.7,9.4-0.7c6.1,0,10.3,1.3,13.2,3.8c3.1,2.6,5.1,6.4,5.1,11.9
		c0,5.8-2,10.1-5.1,12.9c-3.2,2.9-8.4,4.4-14.7,4.4c-3.5,0-6.1-0.2-8-0.4L341.9,539L341.9,539z M347.9,566.5
		c0.8,0.1,2.1,0.1,3.3,0.1c7.7,0,12.3-4.2,12.3-12.4c0-7.2-4.1-11.3-11.5-11.3c-1.9,0-3.2,0.1-4,0.3L347.9,566.5L347.9,566.5z
		 M394.4,539c1.9-0.4,5.3-0.7,8.6-0.7c4.4,0,7.1,0.5,9.3,2.1c2,1.2,3.4,3.3,3.4,6.1c0,3-1.9,5.7-5.4,7v0.1c3.4,0.9,6.5,3.6,6.5,8
		c0,2.9-1.3,5.2-3.1,6.7c-2.3,2-6.1,3-12,3c-3.3,0-5.8-0.2-7.3-0.4L394.4,539L394.4,539z M400.3,551.8h3c4.1,0,6.4-1.9,6.4-4.7
		c0-3-2.3-4.4-6.1-4.4c-1.7,0-2.7,0.1-3.4,0.2V551.8z M400.3,566.7c0.8,0.1,1.8,0.1,3.1,0.1c3.8,0,7.2-1.4,7.2-5.4
		c0-3.8-3.3-5.3-7.4-5.3h-2.9V566.7z M433.1,571v-13.5l-10.3-18.9h6.7l3.9,8.3c1.1,2.4,1.9,4.2,2.8,6.5h0.1c0.8-2.1,1.7-4.1,2.8-6.5
		l3.9-8.3h6.7L439,557.3V571L433.1,571L433.1,571z M107.5,556.2c0-5-4-8.2-8.1-8.2c-4.5,0-8.2,3.6-8.2,8.1c0,4.9,4,8.3,8.1,8.2
		C103.2,564.4,107.5,561.3,107.5,556.2z M770.8,556.2c0-5-4-8.2-8.1-8.2c-4.5,0-8.2,3.6-8.2,8.1c0,4.9,4,8.3,8.1,8.2
		C766.5,564.4,770.7,561.3,770.8,556.2z M485.2,538.5h4.3v22.1c0,8.8-4.3,11.4-10,11.4c-1.6,0-3.5-0.3-4.5-0.8l0.6-3.5
		c0.9,0.3,2.2,0.6,3.6,0.6c3.8,0,6.1-1.7,6.1-8.2V538.5z M517.8,559.5c0,8.8-6.1,12.6-11.8,12.6c-6.4,0-11.3-4.7-11.3-12.2
		c0-7.9,5.2-12.6,11.7-12.6C513.2,547.3,517.8,552.2,517.8,559.5z M499,559.7c0,5.2,3,9.1,7.2,9.1c4.1,0,7.2-3.9,7.2-9.2
		c0-4-2-9.1-7.1-9.1C501.2,550.5,499,555.2,499,559.7z M528,541.2c0,1.5-1,2.6-2.7,2.6c-1.5,0-2.6-1.2-2.6-2.6
		c0-1.5,1.1-2.7,2.7-2.7C527,538.5,528,539.7,528,541.2z M523.2,571.5v-23.7h4.3v23.7H523.2z M534.7,554.2c0-2.4,0-4.5-0.2-6.4h3.8
		l0.2,3.9h0.1c1.2-2.2,3.9-4.5,7.8-4.5c3.3,0,8.4,2,8.4,10.1v14.1h-4.3v-13.6c0-3.8-1.4-7-5.5-7c-2.8,0-5,2-5.8,4.4
		c-0.2,0.5-0.3,1.3-0.3,2v14.2h-4.3L534.7,554.2L534.7,554.2z M566.8,541v6.8h6.2v3.3h-6.2v12.8c0,2.9,0.8,4.6,3.2,4.6
		c1.1,0,2-0.1,2.5-0.3l0.2,3.2c-0.8,0.3-2.2,0.6-3.8,0.6c-2,0-3.6-0.6-4.6-1.8c-1.2-1.3-1.7-3.4-1.7-6.2v-12.9h-3.7v-3.3h3.7v-5.7
		L566.8,541z M577.4,566.3c1.9,1.2,4.7,2.2,7.6,2.2c4.4,0,6.9-2.3,6.9-5.6c0-3.1-1.8-4.8-6.2-6.6c-5.4-1.9-8.7-4.7-8.7-9.3
		c0-5.1,4.3-9,10.7-9c3.4,0,5.8,0.8,7.3,1.6l-1.2,3.5c-1.1-0.6-3.3-1.6-6.3-1.6c-4.5,0-6.2,2.7-6.2,4.9c0,3.1,2,4.6,6.6,6.4
		c5.6,2.2,8.4,4.8,8.4,9.7c0,5.1-3.8,9.5-11.5,9.5c-3.2,0-6.7-0.9-8.4-2.1L577.4,566.3z M607,541v6.8h6.2v3.3H607v12.8
		c0,2.9,0.8,4.6,3.2,4.6c1.1,0,2-0.1,2.5-0.3l0.2,3.2c-0.8,0.3-2.2,0.6-3.8,0.6c-2,0-3.6-0.6-4.6-1.8c-1.2-1.3-1.7-3.4-1.7-6.2
		v-12.9h-3.7v-3.3h3.7v-5.7L607,541z M618,555.2c0-2.8,0-5.2-0.2-7.4h3.8l0.1,4.6h0.2c1.1-3.2,3.7-5.2,6.6-5.2c0.5,0,0.8,0,1.2,0.1
		v4.1c-0.4-0.1-0.9-0.1-1.5-0.1c-3,0-5.2,2.3-5.8,5.5c-0.1,0.6-0.2,1.3-0.2,2v12.6H618V555.2z M654.9,559.5
		c0,8.8-6.1,12.6-11.8,12.6c-6.4,0-11.3-4.7-11.3-12.2c0-7.9,5.2-12.6,11.7-12.6C650.3,547.3,654.9,552.2,654.9,559.5z M636.1,559.7
		c0,5.2,3,9.1,7.2,9.1c4.1,0,7.2-3.9,7.2-9.2c0-4-2-9.1-7.1-9.1C638.3,550.5,636.1,555.2,636.1,559.7z M660.3,554.2
		c0-2.4,0-4.5-0.2-6.4h3.8l0.2,3.9h0.1c1.2-2.2,3.9-4.5,7.8-4.5c3.3,0,8.4,2,8.4,10.1v14.1h-4.3v-13.6c0-3.8-1.4-7-5.5-7
		c-2.8,0-5,2-5.8,4.4c-0.2,0.5-0.3,1.3-0.3,2v14.2h-4.3L660.3,554.2L660.3,554.2z M707.9,547.8c-0.1,1.7-0.2,3.6-0.2,6.5v13.7
		c0,5.4-1.1,8.8-3.4,10.8c-2.3,2.2-5.6,2.8-8.6,2.8c-2.8,0-6-0.7-7.9-2l1.1-3.3c1.6,1,4,1.9,6.9,1.9c4.4,0,7.6-2.3,7.6-8.3v-2.6
		h-0.1c-1.3,2.2-3.9,4-7.5,4c-5.9,0-10.1-5-10.1-11.5c0-8,5.2-12.6,10.7-12.6c4.1,0,6.4,2.2,7.4,4.1h0.1l0.2-3.6L707.9,547.8
		L707.9,547.8z M703.4,557.2c0-0.7,0-1.4-0.2-2c-0.8-2.5-2.9-4.5-6-4.5c-4.1,0-7,3.5-7,9c0,4.6,2.3,8.5,7,8.5c2.6,0,5-1.7,6-4.4
		c0.2-0.7,0.3-1.6,0.3-2.3L703.4,557.2L703.4,557.2z M729.7,546c0,4.5-3.6,8.1-8.2,8.1c-4.6,0-8.3-3.6-8.3-8.1c0-4.5,3.7-8,8.3-8
		C726.2,538,729.7,541.6,729.7,546z M715.3,546c0,3.6,2.6,6.4,6.3,6.4c3.5,0,6.1-2.8,6.1-6.4c0-3.6-2.6-6.5-6.2-6.5
		C717.9,539.6,715.3,542.5,715.3,546z M720.2,550.2h-1.9v-8c0.7-0.1,1.8-0.2,3.1-0.2c1.5,0,2.2,0.2,2.8,0.6c0.4,0.3,0.8,1,0.8,1.8
		c0,0.9-0.7,1.6-1.7,1.9v0.1c0.8,0.3,1.2,0.9,1.5,2c0.2,1.2,0.4,1.7,0.6,2h-2c-0.2-0.3-0.4-1-0.6-2c-0.1-0.9-0.6-1.3-1.7-1.3h-0.9
		L720.2,550.2L720.2,550.2z M720.3,545.7h0.9c1,0,1.9-0.3,1.9-1.2c0-0.7-0.5-1.2-1.7-1.2c-0.5,0-0.8,0-1,0.1V545.7z"/>
	<path class="st1" d="M37.3,467.9v35.9H2.1V402.1h116.1l-22.6,29.6H37.3v8.7h75.1L91,467.9L37.3,467.9L37.3,467.9z M125.4,503.8
		V402.1h35.1v101.7L125.4,503.8L125.4,503.8z M211.9,503.8v-72h-46.2l22.8-29.6h114.9l-22.8,29.6h-33.4v72H211.9z M343.6,448.2v54.6
		h-31.9v-82.1c0-15.2,9-21.4,19.2-21.4c4.3,0,8.4,1.1,14,5.9l57.6,50.6v-54.7h31.9v82.2c0,15.2-9.1,21.4-19.3,21.4
		c-4.4,0-8.4-1.2-14-6.1L343.6,448.2z M453.6,503.8V402.1h120.2L551,431.7h-62.2v8.5h78.7L548,465h-59.1v9.6H574l-22.5,29.2
		L453.6,503.8L453.6,503.8z M574.3,503.8l22.6-29.2h76.8c4.6,0,7.1-1.7,7.1-5.3c0-3.6-2.6-5.3-7.4-5.3h-57.5
		c-26.3,0-38.3-12.3-38.3-29.5c0-20.5,12.8-32.4,44.5-32.4h89.7l-22.6,29.6h-70.4c-4.7,0-7.1,1.2-7.1,4.9c0,3.6,2.4,5,7.1,5h57.8
		c24.6,0,38.2,9.6,38.2,28.1c0,21-10,34-41.5,34L574.3,503.8L574.3,503.8z M719.5,503.8l22.6-29.2h76.8c4.6,0,7.1-1.7,7.1-5.3
		c0-3.6-2.6-5.3-7.4-5.3h-57.5c-26.3,0-38.3-12.3-38.3-29.5c0-20.5,12.8-32.4,44.5-32.4H857l-22.6,29.6H764c-4.7,0-7.1,1.2-7.1,4.9
		c0,3.6,2.4,5,7.1,5h57.8c24.6,0,38.2,9.6,38.2,28.1c0,21-10,34-41.5,34L719.5,503.8L719.5,503.8z"/>
	<path class="st0" d="M28.3,371.7v-44.4H1l5.6-7.1h59.6l-5.5,7.1h-24v44.4H28.3z M113.5,372.5c-23,0-34.6-8.2-34.6-26.6
		c0-18.4,11.6-26.6,34.6-26.6c23,0,34.6,8.2,34.6,26.6C148.1,364.3,136.6,372.5,113.5,372.5z M113.5,326.4
		c-18.2,0-26.3,5.1-26.3,19.6c0,14.5,8,19.6,26.3,19.6s26.3-5.2,26.3-19.6C139.8,331.4,131.8,326.4,113.5,326.4z M208.6,328.8
		l-18.3,40.5c-0.8,1.8-2.5,3.1-4.8,3.1c-2.2,0-3.9-1.4-4.8-3.9l-16.8-48.3h8.3l14.5,41.4l17.2-38.9c1.2-2.8,3-3.2,4.9-3.2
		c2.1,0,3.8,0.5,5,3.2l17.2,38.9l14.4-41.4h8.2l-16.9,48.3c-0.9,2.5-2.6,3.9-4.9,3.9c-2.2,0-3.9-1.2-4.7-3.1L208.6,328.8z M281,331
		v40.7h-7.5v-47c0-3.7,2.2-5.2,4.6-5.2c1.1,0,2.3,0.3,3.6,1.6l41.3,39.6v-40.5h7.6v46.7c0,3.7-2.2,5.2-4.7,5.2
		c-1.1,0-2.2-0.2-3.5-1.5L281,331z M428.9,371.7c-17.1,0-29.6-11.3-29.6-26.3c0-15.1,12.6-25.3,29.6-25.3h32.6l-5.5,7.1h-27.1
		c-10.1,0-21.3,5.7-21.3,18.6s11.3,18.9,25.9,18.9h28l-5.5,7H428.9z M482.4,371.7v-51.5H537l-5.5,7.1h-40.9v15.5h44l-4.8,6.2h-39.2
		v15.8h46.7l-5.5,7L482.4,371.7L482.4,371.7z M564.5,331v40.7H557v-47c0-3.7,2.2-5.2,4.6-5.2c1.1,0,2.3,0.3,3.6,1.6l41.3,39.6v-40.5
		h7.6v46.7c0,3.7-2.2,5.2-4.7,5.2c-1.1,0-2.2-0.2-3.5-1.5L564.5,331z M661.5,371.7v-44.4h-27.3l5.6-7.1h59.6l-5.5,7.1h-24v44.4
		H661.5z M719.6,371.7v-51.5h54.7l-5.5,7.1h-40.9v15.5h44l-4.8,6.2h-39.2v15.8h46.7l-5.5,7L719.6,371.7L719.6,371.7z M849.7,371.7
		l-18.4-17h-29.6v17h-8.3V348h36.9c9.6,0,18.3-2.8,18.3-10.2c0-8.2-7.6-10.5-18.3-10.5h-37l5.5-7.1h34.6c12,0,23.8,4.6,23.8,17.2
		c0,9.2-6.8,14.9-17.2,15.8l21.1,18.6H849.7z"/>
	<g>
		<path class="st2" d="M575.4,199.8l-38.8,49.5l-65,0.1c-51,0-84.6-22.2-103.8-65.8L444,77.9L574.5,78l-36.8,49.7l-68.1,0
			c-33.4-0.1-44.9,15-44.9,32.5c0,18,11.5,39.5,47.3,39.7L575.4,199.8z M286.6,127.3l99.1,1.2l-87.2,120.7c8.6-0.4,9.8,2.3,14.5-5.7
			L432.6,77.6H323.7L286.6,127.3z"/>
		<path class="st0" d="M462.4,54C449.1,54.3,436,43.2,436,27.4c0-14.6,12.1-26.4,26.7-26.4c13.3,0,26.4,10.6,26.3,26.7
			C489,44.3,475.1,54.6,462.4,54z"/>
	</g>
</g>
<g id="Layer_3">
</g>
</svg>
